<svg width="100" height="37" viewBox="0 0 100 37" fill="none" xmlns="http://www.w3.org/2000/svg">
<g clip-path="url(#clip0_1_3)">
<path fill-rule="evenodd" clip-rule="evenodd" d="M8.42154 34.5187C16.4748 39.6266 26.7724 36.5955 31.4219 27.7485C36.0715 18.9015 33.3123 7.58899 25.259 2.48121C17.2058 -2.62658 6.90814 0.404608 2.25861 9.25154C-2.39094 18.0985 0.368308 29.411 8.42154 34.5187ZM4.94491 21.5132C4.36088 24.8653 4.50535 27.9796 5.36863 30.4184C2.13769 26.6682 0.615095 21.5195 1.16163 16.4513C1.55952 17.2396 2.07198 18.0522 2.68095 18.8726C3.32543 19.7408 4.0849 20.6273 4.94491 21.5132ZM3.49654 18.1421C2.49906 16.7982 1.82082 15.5382 1.48958 14.4403C1.83641 12.8606 2.39278 11.3083 3.16996 9.82956C4.27684 7.72346 5.72514 5.96892 7.39373 4.6016C7.79132 5.38859 8.303 6.19967 8.91087 7.01863C9.28314 7.52019 9.69378 8.02778 10.14 8.53784C10.2177 8.34886 10.3264 8.17494 10.4624 8.02549C10.5825 7.89353 10.72 7.78503 10.869 7.70269C10.4536 7.22623 10.0719 6.75357 9.72644 6.28807C9.11748 5.46761 8.6275 4.67844 8.26281 3.93831C11.8474 1.39465 16.2796 0.520252 20.5 1.62696C17.5516 2.12544 14.3313 4.22677 11.5272 7.51851C11.5443 7.5179 11.5614 7.5176 11.5786 7.5176H12.9997C14.2931 6.12895 15.6539 5.01012 17.0077 4.19868C19.7766 2.53915 22.3658 2.23722 24.3408 3.25739L23.108 5.60327C23.1462 5.6379 23.1828 5.67464 23.2182 5.71339C23.491 6.01311 23.6536 6.41126 23.6774 6.83186L25.2438 3.85153C26.9521 5.24755 27.9566 7.81575 28.0307 11.1901C28.079 13.3794 27.728 15.8363 26.9618 18.3679C25.9113 18.0193 24.8111 17.5828 23.6806 17.0615V18.3123C25.8922 19.2995 27.9965 19.9726 29.8562 20.3033C30.8057 20.4721 31.7009 20.5533 32.5201 20.5381C32.2764 22.8092 31.6175 25.0643 30.5106 27.1704C29.7333 28.6493 28.7878 29.9547 27.716 31.0745C26.6847 31.3083 25.3524 31.293 23.7944 31.0161C23.0158 30.8776 22.1877 30.6751 21.3219 30.4102C21.6026 30.1123 21.8799 29.8027 22.1533 29.4818C22.1443 29.4821 22.1354 29.4823 22.1264 29.4825C22.1182 29.4827 22.1101 29.4827 22.1019 29.4827H20.6807C20.5078 29.6683 20.3339 29.8489 20.1589 30.0247C18.6045 29.4713 16.9521 28.7328 15.2618 27.8187V29.1034C16.617 29.8142 17.9498 30.4159 19.2311 30.9024C18.3882 31.652 17.5292 32.2882 16.6729 32.8015C13.9757 34.418 11.4488 34.7462 9.49418 33.8191L10.7089 31.5078C10.6208 31.4441 10.5381 31.3701 10.4624 31.2869C10.2542 31.0583 10.1102 30.7722 10.043 30.4626L8.57437 33.2573C6.78262 31.8883 5.72595 29.2739 5.64983 25.81C5.62627 24.7387 5.69828 23.6035 5.86771 22.4268C6.50062 23.0296 7.17802 23.6293 7.89536 24.2197V23.1244C7.89536 23.0096 7.9055 22.8975 7.92486 22.7889C7.27498 22.2311 6.66401 21.6681 6.09578 21.1053C6.30856 20.0452 6.59736 18.9597 6.96347 17.8638C6.69701 17.786 6.45134 17.6321 6.25302 17.4142C6.18639 17.341 6.12634 17.2619 6.07326 17.1781C5.72351 18.1907 5.43597 19.1988 5.2104 20.1915C4.56868 19.5001 3.995 18.8136 3.49654 18.1421ZM13.1807 35.3731C17.7523 36.5718 22.5724 35.446 26.2946 32.392C25.4743 32.4076 24.5774 32.3264 23.6262 32.1572C22.6194 31.9783 21.541 31.6989 20.4127 31.3237C18.0622 33.5554 15.5347 34.9751 13.1807 35.3731ZM30.0243 19.162C30.9755 19.3312 31.8427 19.4027 32.6083 19.3796C32.8214 14.6975 31.2946 10.0436 28.312 6.5818C29.4448 9.78158 29.3399 14.1448 27.9757 18.6818C28.6885 18.8859 29.3736 19.0463 30.0243 19.162Z" fill="url(#paint0_linear_1_3)"/>
<path d="M9.3965 13.8023H7.29183L7.29169 13.9376V16.1145L9.3965 16.1144V13.8023H11.5012V23.0508H9.3965L9.39637 25.3629H11.5012V29.9872H13.6059V23.0508H15.7105V20.7387H19.92V27.675H22.0247V25.3629H24.1292L24.1294 23.0508H26.234V20.7387H24.1294V23.0508H22.0247V6.86597H19.92V9.17809H17.8153V11.4902H15.7105V13.8023L17.8151 13.8023L17.8153 11.4902H19.8979L19.9198 11.4902V13.7607L19.92 13.8023V18.4265H15.7106L15.7105 20.7387H13.6059V9.17809H11.5012V11.4902H9.3965V13.8023Z" fill="#E5E1E6"/>
<path d="M36.9659 0H39.4753V4.11053H46.5244V0H49.0338V11.1526H46.5244V6.78715H39.4753V11.1526H36.9659V0Z" fill="#E5E1E6"/>
<path d="M52.4081 1.99153C52.5628 1.41797 52.8191 0.945316 53.1769 0.573565C53.5444 0.191185 54.0472 0 54.6854 0H57.7168C58.3647 0 58.8821 0.191185 59.2689 0.573565C59.6555 0.945316 59.9264 1.41797 60.081 1.99153L62.5758 11.1526H59.7909L59.1092 8.47597H54.5112L55.0915 5.79935H58.4276L57.6442 2.67663H54.8303L52.6836 11.1526H49.8989L52.4081 1.99153Z" fill="#E5E1E6"/>
<path d="M63.2946 1.99153C63.2946 1.70476 63.3431 1.43921 63.4398 1.19492C63.5365 0.950625 63.6622 0.743502 63.8168 0.573565C63.9812 0.392999 64.1698 0.254917 64.3825 0.159319C64.6049 0.0531026 64.8321 0 65.0642 0H74.5937V2.67663H65.804V8.47597H74.5937V11.1526H65.1658C64.9047 11.1526 64.6582 11.0995 64.426 10.9933C64.1939 10.8871 63.9957 10.749 63.8312 10.579C63.667 10.3985 63.5365 10.1913 63.4398 9.95767C63.3431 9.71338 63.2946 9.46376 63.2946 9.20884V1.99153Z" fill="#E5E1E6"/>
<path d="M75.9045 0H78.4139V4.36545H80.6766L83.7516 0H86.6525L82.8669 5.41697L87.3632 11.1526H84.1577L80.8071 7.04207H78.4139V11.1526H75.9045V0Z" fill="#E5E1E6"/>
<path d="M41.3319 15.5384H36.4583V12.8618H48.6857V15.5384H43.8411V24.0143H41.3319V15.5384Z" fill="#E5E1E6"/>
<path fill-rule="evenodd" clip-rule="evenodd" d="M49.6259 14.8534C49.6259 14.5666 49.6741 14.301 49.7708 14.0567C49.8675 13.8125 49.9932 13.6053 50.1479 13.4354C50.3123 13.2548 50.5009 13.1167 50.7137 13.0211C50.9361 12.9149 51.1632 12.8618 51.3953 12.8618H59.9965C60.2576 12.8618 60.5042 12.9149 60.7363 13.0211C60.9684 13.1274 61.1667 13.2707 61.3309 13.4513C61.4953 13.6213 61.6259 13.8284 61.7226 14.0727C61.8193 14.3063 61.8677 14.5506 61.8677 14.8056V22.0228C61.8677 22.3097 61.8193 22.5751 61.7226 22.8195C61.6259 23.0638 61.4953 23.2762 61.3309 23.4568C61.1762 23.6268 60.9877 23.7649 60.7653 23.8711C60.5526 23.9666 60.3302 24.0143 60.0981 24.0143H51.4969C51.2358 24.0143 50.9892 23.9613 50.7571 23.8551C50.525 23.7488 50.3269 23.6108 50.1625 23.4408C49.9981 23.2602 49.8675 23.0531 49.7708 22.8195C49.6741 22.5751 49.6259 22.3257 49.6259 22.0707V14.8534ZM59.3583 21.3377V15.5384H52.1351V21.3377H59.3583Z" fill="#E5E1E6"/>
<path fill-rule="evenodd" clip-rule="evenodd" d="M63.1705 14.8534C63.1705 14.5666 63.2189 14.301 63.3156 14.0567C63.4123 13.8125 63.538 13.6053 63.6927 13.4354C63.8571 13.2548 64.0456 13.1167 64.2583 13.0211C64.4809 12.9149 64.708 12.8618 64.9401 12.8618H71.8878C72.1489 12.8618 72.3906 12.9149 72.613 13.0211C72.8354 13.1274 73.0239 13.2707 73.1786 13.4513C73.343 13.6213 73.4687 13.8284 73.5559 14.0727C73.6526 14.3063 73.7009 14.5506 73.7009 14.8056V17.1317C73.962 17.1317 74.1941 17.1848 74.397 17.291C74.6099 17.3972 74.7887 17.5406 74.9338 17.7212C75.0788 17.8911 75.1852 18.0982 75.2529 18.3425C75.3302 18.5762 75.3689 18.8205 75.3689 19.0754V22.0228C75.3689 22.3097 75.3205 22.5751 75.2239 22.8195C75.1272 23.0638 74.9967 23.2762 74.8323 23.4568C74.6776 23.6268 74.489 23.7649 74.2665 23.8711C74.0538 23.9666 73.8314 24.0143 73.5993 24.0143H63.1705V14.8534ZM72.8595 21.3377V19.6331H65.6798V21.3377H72.8595ZM71.1917 17.1317V15.5384H65.6798V17.1317H71.1917Z" fill="#E5E1E6"/>
<path d="M76.5245 14.8534C76.5245 14.5666 76.5727 14.301 76.6694 14.0567C76.7661 13.8125 76.8918 13.6053 77.0465 13.4354C77.2109 13.2548 77.3995 13.1167 77.6123 13.0211C77.8347 12.9149 78.062 12.8618 78.2939 12.8618H87.4319V15.5384H79.0337V16.9723H86.2859V19.6489H79.0337V21.3377H87.4319V24.0143H78.3955C78.1344 24.0143 77.8878 23.9613 77.6557 23.8551C77.4238 23.7488 77.2255 23.6108 77.0611 23.4408C76.8967 23.2602 76.7661 23.0531 76.6694 22.8195C76.5727 22.5751 76.5245 22.3257 76.5245 22.0707V14.8534Z" fill="#E5E1E6"/>
<path d="M36.9659 27.8389C36.9659 27.5522 37.0144 27.2865 37.1111 27.0422C37.2078 26.7981 37.3335 26.591 37.4882 26.421C37.6526 26.2404 37.8411 26.1023 38.0538 26.0068C38.2762 25.9006 38.5034 25.8474 38.7356 25.8474H47.1626V28.5239H39.4753V31.0891H46.0024V33.7657H39.4753V37H36.9659V27.8389Z" fill="#E5E1E6"/>
<path d="M48.096 27.8389C48.096 27.5522 48.1443 27.2865 48.241 27.0422C48.3377 26.7981 48.4634 26.591 48.6182 26.421C48.7825 26.2404 48.9712 26.1023 49.1839 26.0068C49.4063 25.9006 49.6335 25.8474 49.8656 25.8474H59.0035V28.5239H50.6052V29.958H57.8576V32.6346H50.6052V34.3234H59.0035V37H49.967C49.7061 37 49.4594 36.9468 49.2274 36.8407C48.9953 36.7345 48.7971 36.5964 48.6326 36.4265C48.4682 36.2459 48.3377 36.0388 48.241 35.8051C48.1443 35.5608 48.096 35.3111 48.096 35.0562V27.8389Z" fill="#E5E1E6"/>
<path d="M60.3094 34.3234H70.0129V32.6346H62.1224C61.8613 32.6346 61.6196 32.5815 61.3972 32.4753C61.1748 32.3691 60.9814 32.231 60.817 32.0611C60.6623 31.8804 60.5365 31.6733 60.4399 31.4397C60.3528 31.1954 60.3094 30.9457 60.3094 30.6907V27.8389C60.3094 27.5522 60.3577 27.2865 60.4544 27.0422C60.5511 26.7981 60.6768 26.591 60.8314 26.421C60.9958 26.2404 61.1844 26.1023 61.3972 26.0068C61.6196 25.9006 61.8467 25.8474 62.0788 25.8474H71.3908V28.5239H62.8186V29.958H70.709C70.9702 29.958 71.212 30.011 71.4344 30.1172C71.6568 30.2235 71.8453 30.3669 72 30.5475C72.1644 30.7174 72.2901 30.9246 72.3771 31.1689C72.4738 31.4025 72.5222 31.6468 72.5222 31.9016V35.0085C72.5222 35.2953 72.4738 35.5608 72.3771 35.8051C72.2804 36.0494 72.1498 36.2617 71.9856 36.4423C71.8307 36.6123 71.6422 36.7503 71.4198 36.8566C71.2071 36.9521 70.9847 37 70.7526 37H60.3094V34.3234Z" fill="#E5E1E6"/>
<path d="M77.395 28.5239H72.5215V25.8474H84.7488V28.5239H79.9044V37H77.395V28.5239Z" fill="#E5E1E6"/>
<path fill-rule="evenodd" clip-rule="evenodd" d="M88.8932 15.0871C88.8932 14.7589 88.9486 14.4549 89.0592 14.1753C89.17 13.8957 89.3139 13.6587 89.4908 13.4642C89.679 13.2575 89.8948 13.0994 90.1384 12.99C90.3929 12.8685 90.6529 12.8077 90.9186 12.8077H97.9248C98.2236 12.8077 98.5003 12.8685 98.7548 12.99C99.0094 13.1116 99.2253 13.2757 99.4022 13.4824C99.5904 13.6769 99.7344 13.914 99.834 14.1936C99.9446 14.461 100 14.7406 100 15.0324L99.9837 17.3426C99.9837 17.6344 99.9283 17.914 99.8177 18.1814C99.7396 18.4005 99.6344 18.5934 99.5021 18.7602C99.5099 18.7695 99.5175 18.7789 99.5252 18.7884C99.6703 18.9584 99.7766 19.1654 99.8443 19.4097C99.9217 19.6436 99.9604 20.5993 99.9604 20.8543V22.0228C99.9604 22.3097 99.912 22.5751 99.8153 22.8195C99.7186 23.0638 99.588 23.2762 99.4236 23.4567C99.2689 23.6266 99.0804 23.7647 98.858 23.8709C98.6453 23.9666 98.4229 24.0143 98.1908 24.0143H95.9955V21.7018L97.451 21.6936V20.2789H90.9022C90.6366 20.2789 90.3765 20.218 90.122 20.0965C89.8785 19.9871 89.6627 19.8289 89.4745 19.6224C89.2975 19.4279 89.1536 19.1908 89.0429 18.9112C88.9323 18.6316 88.8769 18.3277 88.8769 17.9994L88.8932 15.0871ZM97.1279 15.5961V17.4197H91.7653V15.5961H97.1279Z" fill="#E5E1E6"/>
<path d="M91.4654 21.7018V24.0143H88.8769V20.6346C88.8769 20.6346 89.3623 21.7018 90.6566 21.7018H91.4654Z" fill="#E5E1E6"/>
</g>
<defs>
<linearGradient id="paint0_linear_1_3" x1="4.77172" y1="5.14948" x2="31.3552" y2="29.3481" gradientUnits="userSpaceOnUse">
<stop stop-color="#FFE27D"/>
<stop offset="0.505208" stop-color="#64E3FF"/>
<stop offset="1" stop-color="#9192FF"/>
</linearGradient>
<clipPath id="clip0_1_3">
<rect width="100" height="37" fill="white"/>
</clipPath>
</defs>
</svg>
